<?xml version="1.0" encoding="UTF-8"?>
<svg version="1.1" xmlns="http://www.w3.org/2000/svg" width="47" height="42">
<path d="M0 0 C2.8515625 0.765625 2.8515625 0.765625 5.7890625 3.453125 C6.8515625 6.765625 6.8515625 6.765625 6.1640625 9.578125 C4.8515625 11.765625 4.8515625 11.765625 3.8515625 12.765625 C2.37507374 12.86386496 0.89380833 12.89536019 -0.5859375 12.890625 C-1.38902344 12.89320312 -2.19210938 12.89578125 -3.01953125 12.8984375 C-5.1484375 12.765625 -5.1484375 12.765625 -7.1484375 11.765625 C-7.8084375 14.405625 -8.4684375 17.045625 -9.1484375 19.765625 C-9.8084375 19.765625 -10.4684375 19.765625 -11.1484375 19.765625 C-11.1484375 18.115625 -11.1484375 16.465625 -11.1484375 14.765625 C-11.4784375 16.745625 -11.8084375 18.725625 -12.1484375 20.765625 C-11.1584375 20.518125 -11.1584375 20.518125 -10.1484375 20.265625 C-2.72723031 19.02875713 1.16841386 19.37949967 7.3828125 23.57421875 C7.8675 23.96738281 8.3521875 24.36054688 8.8515625 24.765625 C8.8515625 25.095625 8.8515625 25.425625 8.8515625 25.765625 C7.2015625 26.095625 5.5515625 26.425625 3.8515625 26.765625 C4.5115625 26.765625 5.1715625 26.765625 5.8515625 26.765625 C7.52121701 27.08365443 9.18834768 27.41547451 10.8515625 27.765625 C10.5215625 29.085625 10.1915625 30.405625 9.8515625 31.765625 C8.2015625 31.765625 6.5515625 31.765625 4.8515625 31.765625 C4.8515625 32.425625 4.8515625 33.085625 4.8515625 33.765625 C6.8315625 33.765625 8.8115625 33.765625 10.8515625 33.765625 C10.8515625 35.415625 10.8515625 37.065625 10.8515625 38.765625 C3.21639557 42.47555427 -3.97515687 44.4984757 -12.375 42.140625 C-17.80561523 39.79225084 -22.20576029 35.8998456 -25.1484375 30.765625 C-26.32300399 26.34498386 -26.03373194 22.66834738 -24.1015625 18.515625 C-22.58765944 16.13420446 -20.89777984 13.97952298 -19.1484375 11.765625 C-18.50648437 10.77304688 -17.86453125 9.78046875 -17.203125 8.7578125 C-12.30138884 1.68556587 -8.75410187 -0.77905356 0 0 Z M-1.1484375 1.765625 C-0.8184375 2.425625 -0.4884375 3.085625 -0.1484375 3.765625 C0.5115625 3.435625 1.1715625 3.105625 1.8515625 2.765625 C0.8615625 2.435625 -0.1284375 2.105625 -1.1484375 1.765625 Z M-9.1484375 2.765625 C-8.1484375 4.765625 -8.1484375 4.765625 -8.1484375 4.765625 Z M-0.1484375 5.765625 C0.8515625 7.765625 0.8515625 7.765625 0.8515625 7.765625 Z M-11.1484375 8.765625 C-11.1484375 9.755625 -11.1484375 10.745625 -11.1484375 11.765625 C-10.4884375 11.765625 -9.8284375 11.765625 -9.1484375 11.765625 C-9.4784375 10.775625 -9.8084375 9.785625 -10.1484375 8.765625 C-10.4784375 8.765625 -10.8084375 8.765625 -11.1484375 8.765625 Z M-14.1484375 11.765625 C-13.1484375 13.765625 -13.1484375 13.765625 -13.1484375 13.765625 Z M-17.1484375 14.765625 C-16.1484375 16.765625 -16.1484375 16.765625 -16.1484375 16.765625 Z M-18.1484375 17.765625 C-18.1484375 18.755625 -18.1484375 19.745625 -18.1484375 20.765625 C-19.1384375 20.765625 -20.1284375 20.765625 -21.1484375 20.765625 C-20.8184375 22.085625 -20.4884375 23.405625 -20.1484375 24.765625 C-19.8184375 23.775625 -19.4884375 22.785625 -19.1484375 21.765625 C-18.4884375 21.765625 -17.8284375 21.765625 -17.1484375 21.765625 C-17.4784375 20.445625 -17.8084375 19.125625 -18.1484375 17.765625 Z M-15.1484375 17.765625 C-14.1484375 20.765625 -14.1484375 20.765625 -14.1484375 20.765625 Z M-6.1484375 21.765625 C-6.1484375 22.755625 -6.1484375 23.745625 -6.1484375 24.765625 C-5.1584375 24.765625 -4.1684375 24.765625 -3.1484375 24.765625 C-3.4784375 23.775625 -3.8084375 22.785625 -4.1484375 21.765625 C-4.8084375 21.765625 -5.4684375 21.765625 -6.1484375 21.765625 Z M-12.1484375 22.765625 C-12.8084375 23.425625 -13.4684375 24.085625 -14.1484375 24.765625 C-13.1584375 25.095625 -12.1684375 25.425625 -11.1484375 25.765625 C-11.4784375 24.775625 -11.8084375 23.785625 -12.1484375 22.765625 Z M-20.1484375 25.765625 C-20.4784375 26.425625 -20.8084375 27.085625 -21.1484375 27.765625 C-19.1684375 27.765625 -17.1884375 27.765625 -15.1484375 27.765625 C-15.1484375 27.105625 -15.1484375 26.445625 -15.1484375 25.765625 C-16.7984375 25.765625 -18.4484375 25.765625 -20.1484375 25.765625 Z M-4.1484375 25.765625 C-4.1484375 28.765625 -4.1484375 28.765625 -4.1484375 28.765625 Z M-2.1484375 26.765625 C-1.8184375 27.755625 -1.4884375 28.745625 -1.1484375 29.765625 C-0.4884375 29.435625 0.1715625 29.105625 0.8515625 28.765625 C0.8515625 28.105625 0.8515625 27.445625 0.8515625 26.765625 C-0.1384375 26.765625 -1.1284375 26.765625 -2.1484375 26.765625 Z M-15.1484375 28.765625 C-15.1484375 29.425625 -15.1484375 30.085625 -15.1484375 30.765625 C-14.4884375 30.435625 -13.8284375 30.105625 -13.1484375 29.765625 C-13.8084375 29.435625 -14.4684375 29.105625 -15.1484375 28.765625 Z M-7.1484375 30.765625 C-6.4884375 32.085625 -5.8284375 33.405625 -5.1484375 34.765625 C-3.8284375 34.765625 -2.5084375 34.765625 -1.1484375 34.765625 C-3.85847043 32.09230787 -3.85847043 32.09230787 -7.1484375 30.765625 Z M-0.1484375 30.765625 C-0.1484375 31.425625 -0.1484375 32.085625 -0.1484375 32.765625 C0.5115625 32.765625 1.1715625 32.765625 1.8515625 32.765625 C1.8515625 32.105625 1.8515625 31.445625 1.8515625 30.765625 C1.1915625 30.765625 0.5315625 30.765625 -0.1484375 30.765625 Z M-9.1484375 31.765625 C-8.1484375 33.765625 -8.1484375 33.765625 -8.1484375 33.765625 Z M-17.1484375 34.765625 C-16.4884375 35.425625 -15.8284375 36.085625 -15.1484375 36.765625 C-15.1484375 36.105625 -15.1484375 35.445625 -15.1484375 34.765625 C-15.8084375 34.765625 -16.4684375 34.765625 -17.1484375 34.765625 Z M-13.1484375 34.765625 C-13.1484375 35.755625 -13.1484375 36.745625 -13.1484375 37.765625 C-12.4884375 37.435625 -11.8284375 37.105625 -11.1484375 36.765625 C-11.8084375 36.105625 -12.4684375 35.445625 -13.1484375 34.765625 Z M2.8515625 34.765625 C2.8515625 35.755625 2.8515625 36.745625 2.8515625 37.765625 C4.1715625 37.435625 5.4915625 37.105625 6.8515625 36.765625 C5.5315625 36.105625 4.2115625 35.445625 2.8515625 34.765625 Z M-8.1484375 37.765625 C-8.4784375 38.755625 -8.8084375 39.745625 -9.1484375 40.765625 C-7.8284375 40.435625 -6.5084375 40.105625 -5.1484375 39.765625 C-5.1484375 39.105625 -5.1484375 38.445625 -5.1484375 37.765625 C-6.1384375 37.765625 -7.1284375 37.765625 -8.1484375 37.765625 Z M-4.1484375 37.765625 C-4.1484375 38.425625 -4.1484375 39.085625 -4.1484375 39.765625 C-3.1584375 40.095625 -2.1684375 40.425625 -1.1484375 40.765625 C-0.8184375 39.775625 -0.4884375 38.785625 -0.1484375 37.765625 C-1.4684375 37.765625 -2.7884375 37.765625 -4.1484375 37.765625 Z " fill="#98C0C6" transform="translate(25.1484375,-0.765625)"/>
<path d="M0 0 C2.375 0.25 2.375 0.25 5 1 C6.3125 3.0625 6.3125 3.0625 7 5 C7.66 5 8.32 5 9 5 C10.66965451 5.31802943 12.33678518 5.64984951 14 6 C13.67 7.32 13.34 8.64 13 10 C11.35 10 9.7 10 8 10 C8 10.66 8 11.32 8 12 C8.66 12 9.32 12 10 12 C10 12.66 10 13.32 10 14 C8.68 13.67 7.36 13.34 6 13 C5.67 13.99 5.34 14.98 5 16 C3.02 16 1.04 16 -1 16 C-1 15.34 -1 14.68 -1 14 C-0.34 13.67 0.32 13.34 1 13 C-0.32 12.34 -1.64 11.68 -3 11 C-3 12.32 -3 13.64 -3 15 C-5 16 -5 16 -8.125 15.0625 C-9.07375 14.711875 -10.0225 14.36125 -11 14 C-11 13.34 -11 12.68 -11 12 C-9.35 11.67 -7.7 11.34 -6 11 C-5.67 8.69 -5.34 6.38 -5 4 C-3.35 3.67 -1.7 3.34 0 3 C0 2.01 0 1.02 0 0 Z M-1 4 C-1 7 -1 7 -1 7 Z M1 5 C1.33 5.99 1.66 6.98 2 8 C2.66 7.67 3.32 7.34 4 7 C4 6.34 4 5.68 4 5 C3.01 5 2.02 5 1 5 Z M3 9 C3 9.66 3 10.32 3 11 C3.66 11 4.32 11 5 11 C5 10.34 5 9.68 5 9 C4.34 9 3.68 9 3 9 Z " fill="#9AC2C8" transform="translate(22,21)"/>
<path d="M0 0 C3.0625 0.484375 3.0625 0.484375 6 3.171875 C7.0625 6.484375 7.0625 6.484375 6.375 9.296875 C5.0625 11.484375 5.0625 11.484375 4.0625 12.484375 C2.54321962 12.55617464 1.02082518 12.56829507 -0.5 12.546875 C-1.32628906 12.53785156 -2.15257812 12.52882813 -3.00390625 12.51953125 C-3.64199219 12.50792969 -4.28007812 12.49632812 -4.9375 12.484375 C-4.9375 8.484375 -4.9375 8.484375 -2.9375 6.484375 C-0.8125 6.859375 -0.8125 6.859375 1.0625 7.484375 C0.7325 6.494375 0.4025 5.504375 0.0625 4.484375 C0.7225 4.484375 1.3825 4.484375 2.0625 4.484375 C1.7325 3.824375 1.4025 3.164375 1.0625 2.484375 C0.299375 2.484375 -0.46375 2.484375 -1.25 2.484375 C-3.8125 2.484375 -6.375 2.484375 -8.9375 2.484375 C-9.2675 3.804375 -9.5975 5.124375 -9.9375 6.484375 C-10.5975 6.484375 -11.2575 6.484375 -11.9375 6.484375 C-12.2675 5.494375 -12.5975 4.504375 -12.9375 3.484375 C-9.62033976 -0.94244027 -5.09073419 -0.11363246 0 0 Z " fill="#8AB5B7" transform="translate(24.9375,-0.484375)"/>
<path d="M0 0 C2.26939243 0.52618405 4.46039526 1.13295893 6.6640625 1.88671875 C5.6740625 2.38171875 5.6740625 2.38171875 4.6640625 2.88671875 C4.6640625 3.87671875 4.6640625 4.86671875 4.6640625 5.88671875 C3.6740625 5.55671875 2.6840625 5.22671875 1.6640625 4.88671875 C0.3440625 7.19671875 -0.9759375 9.50671875 -2.3359375 11.88671875 C-4.3359375 10.88671875 -4.3359375 10.88671875 -5.3359375 7.88671875 C-6.1196875 8.05171875 -6.9034375 8.21671875 -7.7109375 8.38671875 C-10.3359375 8.88671875 -10.3359375 8.88671875 -12.3359375 8.88671875 C-10.96610247 5.72556099 -10.3468737 4.89400955 -7.3359375 2.88671875 C-7.3359375 3.54671875 -7.3359375 4.20671875 -7.3359375 4.88671875 C-6.376875 3.58734375 -6.376875 3.58734375 -5.3984375 2.26171875 C-2.3359375 -0.11328125 -2.3359375 -0.11328125 0 0 Z " fill="#99BEC2" transform="translate(20.3359375,1.11328125)"/>
<path d="M0 0 C2.375 0.25 2.375 0.25 5 1 C6.45713624 3.15101064 7 4.40286494 7 7 C6.01 7 5.02 7 4 7 C4 6.34 4 5.68 4 5 C3.01 5 2.02 5 1 5 C0.67 5.66 0.34 6.32 0 7 C-0.33 6.67 -0.66 6.34 -1 6 C-1 6.66 -1 7.32 -1 8 C-1.99 8 -2.98 8 -4 8 C-3.835 8.763125 -3.67 9.52625 -3.5 10.3125 C-3 13 -3 13 -3 16 C-5.64 15.34 -8.28 14.68 -11 14 C-11 13.34 -11 12.68 -11 12 C-9.35 11.67 -7.7 11.34 -6 11 C-5.67 8.69 -5.34 6.38 -5 4 C-3.35 3.67 -1.7 3.34 0 3 C0 2.01 0 1.02 0 0 Z " fill="#AAD2DB" transform="translate(22,21)"/>
<path d="M0 0 C0.94875 0.350625 1.8975 0.70125 2.875 1.0625 C3.67453138 4.34946233 3.97158936 5.77273192 2.875 9.0625 C2.215 9.0625 1.555 9.0625 0.875 9.0625 C0.875 7.4125 0.875 5.7625 0.875 4.0625 C0.215 6.3725 -0.445 8.6825 -1.125 11.0625 C-1.785 10.7325 -2.445 10.4025 -3.125 10.0625 C-2.795 9.0725 -2.465 8.0825 -2.125 7.0625 C-2.785 7.0625 -3.445 7.0625 -4.125 7.0625 C-3.125 4.0625 -3.125 4.0625 -1.125 1.0625 C-2.445 0.7325 -3.765 0.4025 -5.125 0.0625 C-3.125 -0.9375 -3.125 -0.9375 0 0 Z " fill="#A1C8CF" transform="translate(13.125,9.9375)"/>
<path d="M0 0 C0.99 0.33 1.98 0.66 3 1 C2.67 2.98 2.34 4.96 2 7 C1.34 6.67 0.68 6.34 0 6 C-0.33 6.99 -0.66 7.98 -1 9 C-2.98 9.33 -4.96 9.66 -7 10 C-6.67 7.69 -6.34 5.38 -6 3 C-5.195625 2.87625 -4.39125 2.7525 -3.5625 2.625 C-2.716875 2.41875 -1.87125 2.2125 -1 2 C-0.67 1.34 -0.34 0.68 0 0 Z " fill="#A0C4CB" transform="translate(11,24)"/>
<path d="M0 0 C0.99 0 1.98 0 3 0 C4.6875 2 4.6875 2 6 4 C7.98 3.67 9.96 3.34 12 3 C12 4.98 12 6.96 12 9 C6.19945661 7.47549821 2.32364676 6.34673609 -1 1 C-0.67 0.67 -0.34 0.34 0 0 Z " fill="#8EB5B9" transform="translate(5,33)"/>
<path d="M0 0 C2.64 0.66 5.28 1.32 8 2 C8 2.66 8 3.32 8 4 C6.68 3.67 5.36 3.34 4 3 C3.67 3.99 3.34 4.98 3 6 C1.02 6 -0.96 6 -3 6 C-3 5.34 -3 4.68 -3 4 C-2.34 3.67 -1.68 3.34 -1 3 C-0.67 2.01 -0.34 1.02 0 0 Z " fill="#ADCED7" transform="translate(24,31)"/>
<path d="M0 0 C1.32 0.33 2.64 0.66 4 1 C3.67 2.32 3.34 3.64 3 5 C2.01 5 1.02 5 0 5 C-0.66 5.66 -1.32 6.32 -2 7 C-2.99 6.67 -3.98 6.34 -5 6 C-3.35 4.02 -1.7 2.04 0 0 Z " fill="#92B9BE" transform="translate(7,10)"/>
<path d="M0 0 C1.9375 0.8125 1.9375 0.8125 4 2 C4.33 2.99 4.66 3.98 5 5 C4.67 5.66 4.34 6.32 4 7 C1.525 6.01 1.525 6.01 -1 5 C-0.34 4.67 0.32 4.34 1 4 C0.67 2.68 0.34 1.36 0 0 Z " fill="#84AAAE" transform="translate(26,0)"/>
<path d="M0 0 C0.66 0 1.32 0 2 0 C2 2.31 2 4.62 2 7 C1.01 7 0.02 7 -1 7 C-0.67 6.01 -0.34 5.02 0 4 C-0.66 4 -1.32 4 -2 4 C-1 1 -1 1 0 0 Z " fill="#AACCD6" transform="translate(11,13)"/>
<path d="M0 0 C0.99 0.33 1.98 0.66 3 1 C2.67 2.98 2.34 4.96 2 7 C0.68 5.68 -0.64 4.36 -2 3 C-1.34 2.01 -0.68 1.02 0 0 Z " fill="#AACDD5" transform="translate(11,24)"/>
</svg>
